# Cambiando el bitrate de un video
La idea de esta clase es cambiar el bitrate de un video. Con el objetivo de evidenciar la importancia del bitrate en la calidad percibida del video final

### Requisitos
En esta clase estaremos usando un video con las siguientes características.

``` bash
    Input #0, mov,mp4,m4a,3gp,3g2,mj2, from 'video.mp4':=    0B f=0/0   
      Metadata:
        major_brand     : isom
        minor_version   : 512
        compatible_brands: isomiso2avc1mp41
        encoder         : Lavf58.19.102
      Duration: 00:02:00.14, start: 0.000000, bitrate: 1614 kb/s
      Stream #0:0[0x1](und): Video: h264 (High) (avc1 / 0x31637661), yuv420p(tv, bt709, progressive), 1920x800 [SAR 1:1 DAR 12:5], 1480 kb/s, 24 fps, 24 tbr, 12288 tbn (default)
        Metadata:
          handler_name    : ISO Media file produced by Google Inc.
          vendor_id       : [0][0][0][0]
      Stream #0:1[0x2](eng): Audio: aac (LC) (mp4a / 0x6134706D), 44100 Hz, stereo, fltp, 127 kb/s (default)
        Metadata:
          handler_name    : ISO Media file produced by Google Inc.
          vendor_id       : [0][0][0][0]
```
